# Blender v2.82 (sub 7) OBJ File: ''
# www.blender.org
mtllib portal.mtl
o Plane
v 0.589702 -1.000000 0.000000
v -0.589702 -1.000000 0.000000
v 0.589702 1.000000 -0.000000
v -0.589702 1.000000 -0.000000
v -0.105805 0.915462 -0.000000
v -0.157432 0.893205 -0.000000
v -0.478293 0.440000 -0.000000
v -0.450931 0.518567 -0.000000
v -0.207541 -0.862347 -0.000000
v -0.000000 0.933398 -0.000000
v -0.255653 -0.823183 -0.000000
v 0.053157 0.928903 -0.000000
v 0.105803 0.915463 -0.000000
v -0.344051 0.721525 -0.000000
v -0.383486 0.660011 -0.000000
v -0.419227 0.592140 -0.000000
v 0.105803 -0.915463 -0.000000
v 0.053157 -0.928903 -0.000000
v -0.157431 -0.893206 -0.000000
v 0.450930 0.518568 -0.000000
v 0.419226 0.592141 -0.000000
v -0.053160 0.928903 -0.000000
v 0.207540 0.862347 -0.000000
v 0.157430 0.893206 -0.000000
v 0.157429 -0.893206 -0.000000
v -0.105804 -0.915463 -0.000000
v -0.501048 0.357195 -0.000000
v 0.301302 -0.776092 -0.000000
v 0.383485 0.660012 -0.000000
v 0.255652 -0.823184 -0.000000
v -0.207542 0.862346 -0.000000
v -0.301304 0.776091 -0.000000
v 0.207540 -0.862347 -0.000000
v 0.255652 0.823183 -0.000000
v -0.000001 -0.933398 -0.000000
v 0.301302 0.776092 -0.000000
v -0.053158 -0.928903 -0.000000
v -0.255654 0.823182 -0.000000
v 0.344050 0.721526 -0.000000
v -0.531909 0.182096 -0.000000
v -0.539719 0.091488 -0.000000
v -0.518977 -0.270951 -0.000000
v -0.501048 -0.357196 -0.000000
v 0.450930 -0.518568 -0.000000
v 0.518977 -0.270951 -0.000000
v 0.419226 -0.592142 -0.000000
v 0.531909 -0.182097 -0.000000
v 0.518977 0.270951 -0.000000
v 0.531909 0.182097 -0.000000
v -0.301303 -0.776091 -0.000000
v -0.344051 -0.721526 -0.000000
v -0.383486 -0.660011 -0.000000
v -0.539719 -0.091489 -0.000000
v 0.383485 -0.660012 -0.000000
v 0.501047 -0.357196 -0.000000
v 0.478292 -0.440001 -0.000000
v -0.531909 -0.182097 -0.000000
v 0.539718 -0.091489 -0.000000
v -0.478293 -0.440000 -0.000000
v -0.450931 -0.518568 -0.000000
v 0.542329 -0.000000 -0.000000
v -0.518978 0.270950 -0.000000
v 0.344050 -0.721527 -0.000000
v 0.478292 0.440001 -0.000000
v 0.501047 0.357196 -0.000000
v -0.542330 -0.000000 -0.000000
v 0.539718 0.091489 -0.000000
v -0.419227 -0.592141 -0.000000
vt 0.500001 0.033301
vt 0.545072 0.035548
vt 1.000000 0.000000
vt 0.000000 1.000000
vt 1.000000 1.000000
vt 0.500000 0.966699
vt 0.000000 0.000000
vt 0.040167 0.500000
vt 0.042381 0.454255
vt 0.049002 0.408951
vt 0.957619 0.454255
vt 0.959834 0.500000
vt 0.950998 0.408952
vt 0.059967 0.364524
vt 0.075170 0.321402
vt 0.940033 0.364524
vt 0.924831 0.321402
vt 0.094463 0.279999
vt 0.117663 0.240716
vt 0.905537 0.280000
vt 0.882338 0.240716
vt 0.144544 0.203929
vt 0.174849 0.169994
vt 0.855457 0.203930
vt 0.825152 0.169994
vt 0.208285 0.139237
vt 0.244531 0.111954
vt 0.791716 0.139237
vt 0.755470 0.111954
vt 0.283237 0.088408
vt 0.324030 0.068826
vt 0.716765 0.088408
vt 0.675971 0.068827
vt 0.366518 0.053397
vt 0.410291 0.042269
vt 0.633483 0.053397
vt 0.589710 0.042269
vt 0.454929 0.035548
vt 0.042381 0.545744
vt 0.957619 0.545744
vt 0.049002 0.591048
vt 0.950998 0.591048
vt 0.940033 0.635475
vt 0.059967 0.635476
vt 0.075169 0.678598
vt 0.924831 0.678597
vt 0.905537 0.720000
vt 0.094463 0.720000
vt 0.117663 0.759284
vt 0.882338 0.759283
vt 0.855457 0.796070
vt 0.144544 0.796071
vt 0.174849 0.830006
vt 0.825152 0.830005
vt 0.791716 0.860763
vt 0.208285 0.860763
vt 0.244530 0.888046
vt 0.755471 0.888045
vt 0.716765 0.911591
vt 0.283236 0.911592
vt 0.324030 0.931174
vt 0.675972 0.931173
vt 0.633484 0.946603
vt 0.366518 0.946603
vt 0.410291 0.957731
vt 0.589711 0.957731
vt 0.545073 0.964451
vt 0.454929 0.964452
vn 0.0000 0.0000 1.0000
usemtl None
s off
f 35/1/1 37/2/1 2/3/1
f 3/4/1 4/5/1 10/6/1
f 1/7/1 61/8/1 58/9/1
f 1/7/1 58/9/1 47/10/1
f 53/11/1 66/12/1 2/3/1
f 57/13/1 53/11/1 2/3/1
f 1/7/1 47/10/1 45/14/1
f 1/7/1 45/14/1 55/15/1
f 42/16/1 57/13/1 2/3/1
f 43/17/1 42/16/1 2/3/1
f 1/7/1 55/15/1 56/18/1
f 1/7/1 56/18/1 44/19/1
f 59/20/1 43/17/1 2/3/1
f 60/21/1 59/20/1 2/3/1
f 1/7/1 44/19/1 46/22/1
f 1/7/1 46/22/1 54/23/1
f 68/24/1 60/21/1 2/3/1
f 52/25/1 68/24/1 2/3/1
f 1/7/1 54/23/1 63/26/1
f 1/7/1 63/26/1 28/27/1
f 51/28/1 52/25/1 2/3/1
f 50/29/1 51/28/1 2/3/1
f 1/7/1 28/27/1 30/30/1
f 1/7/1 30/30/1 33/31/1
f 11/32/1 50/29/1 2/3/1
f 9/33/1 11/32/1 2/3/1
f 1/7/1 33/31/1 25/34/1
f 1/7/1 25/34/1 17/35/1
f 19/36/1 9/33/1 2/3/1
f 26/37/1 19/36/1 2/3/1
f 1/7/1 17/35/1 18/38/1
f 1/7/1 18/38/1 35/1/1
f 37/2/1 26/37/1 2/3/1
f 1/7/1 35/1/1 2/3/1
f 67/39/1 61/8/1 3/4/1
f 61/8/1 1/7/1 3/4/1
f 4/5/1 2/3/1 66/12/1
f 4/5/1 66/12/1 41/40/1
f 49/41/1 67/39/1 3/4/1
f 4/5/1 41/40/1 40/42/1
f 4/5/1 40/42/1 62/43/1
f 48/44/1 49/41/1 3/4/1
f 65/45/1 48/44/1 3/4/1
f 4/5/1 62/43/1 27/46/1
f 4/5/1 27/46/1 7/47/1
f 64/48/1 65/45/1 3/4/1
f 20/49/1 64/48/1 3/4/1
f 4/5/1 7/47/1 8/50/1
f 4/5/1 8/50/1 16/51/1
f 21/52/1 20/49/1 3/4/1
f 29/53/1 21/52/1 3/4/1
f 4/5/1 16/51/1 15/54/1
f 4/5/1 15/54/1 14/55/1
f 39/56/1 29/53/1 3/4/1
f 36/57/1 39/56/1 3/4/1
f 4/5/1 14/55/1 32/58/1
f 4/5/1 32/58/1 38/59/1
f 34/60/1 36/57/1 3/4/1
f 23/61/1 34/60/1 3/4/1
f 4/5/1 38/59/1 31/62/1
f 4/5/1 31/62/1 6/63/1
f 24/64/1 23/61/1 3/4/1
f 13/65/1 24/64/1 3/4/1
f 4/5/1 6/63/1 5/66/1
f 4/5/1 5/66/1 22/67/1
f 12/68/1 13/65/1 3/4/1
f 4/5/1 22/67/1 10/6/1
f 10/6/1 12/68/1 3/4/1
