# Blender v2.82 (sub 7) OBJ File: ''
# www.blender.org
mtllib portal_inner.mtl
o Plane.001
v -0.105805 0.915462 -0.000000
v -0.157432 0.893205 -0.000000
v -0.478293 0.440000 -0.000000
v -0.450931 0.518567 -0.000000
v -0.207541 -0.862347 -0.000000
v -0.000000 0.933398 -0.000000
v -0.255653 -0.823183 -0.000000
v 0.053157 0.928903 -0.000000
v 0.105803 0.915463 -0.000000
v -0.344051 0.721525 -0.000000
v -0.383486 0.660011 -0.000000
v -0.419227 0.592140 -0.000000
v 0.105803 -0.915463 -0.000000
v 0.053157 -0.928903 -0.000000
v -0.157431 -0.893206 -0.000000
v 0.450930 0.518568 -0.000000
v 0.419226 0.592141 -0.000000
v -0.053160 0.928903 -0.000000
v 0.207540 0.862347 -0.000000
v 0.157430 0.893206 -0.000000
v 0.157429 -0.893206 -0.000000
v -0.105804 -0.915463 -0.000000
v -0.501048 0.357195 -0.000000
v 0.301302 -0.776092 -0.000000
v 0.383485 0.660012 -0.000000
v 0.255652 -0.823184 -0.000000
v -0.207542 0.862346 -0.000000
v -0.301304 0.776091 -0.000000
v 0.207540 -0.862347 -0.000000
v 0.255652 0.823183 -0.000000
v -0.000001 -0.933398 -0.000000
v 0.301302 0.776092 -0.000000
v -0.053158 -0.928903 -0.000000
v -0.255654 0.823182 -0.000000
v 0.344050 0.721526 -0.000000
v -0.531909 0.182096 -0.000000
v -0.539719 0.091488 -0.000000
v -0.518977 -0.270951 -0.000000
v -0.501048 -0.357196 -0.000000
v 0.450930 -0.518568 -0.000000
v 0.518977 -0.270951 -0.000000
v 0.419226 -0.592142 -0.000000
v 0.531909 -0.182097 -0.000000
v 0.518977 0.270951 -0.000000
v 0.531909 0.182097 -0.000000
v -0.301303 -0.776091 -0.000000
v -0.344051 -0.721526 -0.000000
v -0.383486 -0.660011 -0.000000
v -0.539719 -0.091489 -0.000000
v 0.383485 -0.660012 -0.000000
v 0.501047 -0.357196 -0.000000
v 0.478292 -0.440001 -0.000000
v -0.531909 -0.182097 -0.000000
v 0.539718 -0.091489 -0.000000
v -0.478293 -0.440000 -0.000000
v -0.450931 -0.518568 -0.000000
v 0.542329 -0.000000 -0.000000
v -0.518978 0.270950 -0.000000
v 0.344050 -0.721527 -0.000000
v 0.478292 0.440001 -0.000000
v 0.501047 0.357196 -0.000000
v -0.542330 -0.000000 -0.000000
v 0.539718 0.091489 -0.000000
v -0.419227 -0.592141 -0.000000
v -0.000001 -0.000000 -0.000000
vt 0.825152 0.169994
vt 0.855457 0.203930
vt 0.825152 0.169994
vt 0.545073 0.964451
vt 0.500000 0.966699
vt 0.545073 0.964451
vt 0.924831 0.678597
vt 0.905537 0.720000
vt 0.924831 0.678597
vt 0.882338 0.240716
vt 0.855457 0.203930
vt 0.059967 0.635476
vt 0.049002 0.591048
vt 0.059967 0.635476
vt 0.144544 0.796071
vt 0.117663 0.759284
vt 0.144544 0.796071
vt 0.791716 0.139237
vt 0.791716 0.139237
vt 0.589711 0.957731
vt 0.589711 0.957731
vt 0.716765 0.088408
vt 0.755470 0.111954
vt 0.716765 0.088408
vt 0.366518 0.946603
vt 0.324030 0.931174
vt 0.366518 0.946603
vt 0.174849 0.169994
vt 0.208285 0.139237
vt 0.174849 0.169994
vt 0.410291 0.957731
vt 0.410291 0.957731
vt 0.940033 0.635475
vt 0.940033 0.635475
vt 0.366518 0.053397
vt 0.410291 0.042269
vt 0.366518 0.053397
vt 0.059967 0.364524
vt 0.075170 0.321402
vt 0.059967 0.364524
vt 0.855457 0.796070
vt 0.825152 0.830005
vt 0.855457 0.796070
vt 0.940033 0.364524
vt 0.950998 0.408952
vt 0.940033 0.364524
vt 0.589710 0.042269
vt 0.633483 0.053397
vt 0.589710 0.042269
vt 0.957619 0.454255
vt 0.950998 0.408952
vt 0.244531 0.111954
vt 0.283237 0.088408
vt 0.244531 0.111954
vt 0.042381 0.454255
vt 0.049002 0.408951
vt 0.042381 0.454255
vt 0.174849 0.830006
vt 0.174849 0.830006
vt 0.905537 0.280000
vt 0.882338 0.240716
vt 0.791716 0.860763
vt 0.755471 0.888045
vt 0.791716 0.860763
vt 0.924831 0.321402
vt 0.905537 0.280000
vt 0.324030 0.068826
vt 0.283237 0.088408
vt 0.040167 0.500000
vt 0.040167 0.500000
vt 0.283236 0.911592
vt 0.324030 0.931174
vt 0.950998 0.591048
vt 0.950998 0.591048
vt 0.324030 0.068826
vt 0.144544 0.203929
vt 0.144544 0.203929
vt 0.500001 0.033301
vt 0.545072 0.035548
vt 0.500001 0.033301
vt 0.208285 0.139237
vt 0.454929 0.035548
vt 0.454929 0.035548
vt 0.755470 0.111954
vt 0.244530 0.888046
vt 0.283236 0.911592
vt 0.633484 0.946603
vt 0.633484 0.946603
vt 0.094463 0.720000
vt 0.117663 0.759284
vt 0.716765 0.911591
vt 0.755471 0.888045
vt 0.882338 0.759283
vt 0.905537 0.720000
vt 0.075169 0.678598
vt 0.075169 0.678598
vt 0.545072 0.035548
vt 0.675971 0.068827
vt 0.675971 0.068827
vt 0.094463 0.720000
vt 0.208285 0.860763
vt 0.244530 0.888046
vt 0.454929 0.964452
vt 0.500000 0.966699
vt 0.094463 0.279999
vt 0.117663 0.240716
vt 0.094463 0.279999
vt 0.208285 0.860763
vt 0.454929 0.964452
vt 0.075170 0.321402
vt 0.675972 0.931173
vt 0.716765 0.911591
vt 0.825152 0.830005
vt 0.959834 0.500000
vt 0.957619 0.545744
vt 0.959834 0.500000
vt 0.957619 0.545744
vt 0.882338 0.759283
vt 0.957619 0.454255
vt 0.924831 0.321402
vt 0.410291 0.042269
vt 0.042381 0.545744
vt 0.049002 0.591048
vt 0.117663 0.240716
vt 0.633483 0.053397
vt 0.042381 0.545744
vt 0.049002 0.408951
vt 0.675972 0.931173
vn 0.0000 -0.0000 -1.0000
usemtl None
s off
f 48/1/1 64/2/1 65/3/1
f 18/4/1 6/5/1 65/6/1
f 23/7/1 3/8/1 65/9/1
f 64/2/1 56/10/1 65/11/1
f 44/12/1 45/13/1 65/14/1
f 17/15/1 16/16/1 65/17/1
f 47/18/1 48/1/1 65/19/1
f 1/20/1 18/4/1 65/21/1
f 7/22/1 46/23/1 65/24/1
f 20/25/1 19/26/1 65/27/1
f 50/28/1 59/29/1 65/30/1
f 9/31/1 20/25/1 65/32/1
f 58/33/1 23/7/1 65/34/1
f 21/35/1 13/36/1 65/37/1
f 41/38/1 51/39/1 65/40/1
f 12/41/1 11/42/1 65/43/1
f 38/44/1 53/45/1 65/46/1
f 22/47/1 15/48/1 65/49/1
f 53/45/1 49/50/1 65/51/1
f 24/52/1 26/53/1 65/54/1
f 54/55/1 43/56/1 65/57/1
f 25/58/1 17/15/1 65/59/1
f 56/10/1 55/60/1 65/61/1
f 10/62/1 28/63/1 65/64/1
f 55/60/1 39/65/1 65/66/1
f 26/53/1 29/67/1 65/68/1
f 57/69/1 54/55/1 65/70/1
f 19/26/1 30/71/1 65/72/1
f 36/73/1 58/33/1 65/74/1
f 29/67/1 21/35/1 65/75/1
f 42/76/1 50/28/1 65/77/1
f 31/78/1 33/79/1 65/80/1
f 59/29/1 24/52/1 65/81/1
f 14/82/1 31/78/1 65/83/1
f 46/23/1 47/18/1 65/84/1
f 30/71/1 32/85/1 65/86/1
f 2/87/1 1/20/1 65/88/1
f 16/16/1 60/89/1 65/90/1
f 28/63/1 34/91/1 65/92/1
f 3/8/1 4/93/1 65/94/1
f 61/95/1 44/12/1 65/96/1
f 33/79/1 22/47/1 65/97/1
f 5/98/1 7/22/1 65/99/1
f 60/89/1 61/95/1 65/100/1
f 32/85/1 35/101/1 65/102/1
f 6/5/1 8/103/1 65/104/1
f 52/105/1 40/106/1 65/107/1
f 35/101/1 25/58/1 65/108/1
f 8/103/1 9/31/1 65/109/1
f 51/39/1 52/105/1 65/110/1
f 34/91/1 27/111/1 65/112/1
f 11/42/1 10/62/1 65/113/1
f 62/114/1 37/115/1 65/116/1
f 37/115/1 36/73/1 65/117/1
f 4/93/1 12/41/1 65/118/1
f 49/50/1 62/114/1 65/119/1
f 39/65/1 38/44/1 65/120/1
f 13/36/1 14/82/1 65/121/1
f 45/13/1 63/122/1 65/123/1
f 40/106/1 42/76/1 65/124/1
f 15/48/1 5/98/1 65/125/1
f 63/122/1 57/69/1 65/126/1
f 43/56/1 41/38/1 65/127/1
f 27/111/1 2/87/1 65/128/1
